<svg id="Layer_1" data-name="Layer 1" xmlns="http://www.w3.org/2000/svg" viewBox="0 0 1000 1000"><defs><style>.cls-1,.cls-5{fill:#303030;}.cls-2{opacity:0.19;}.cls-3{opacity:0.5;}.cls-4{opacity:0.38;}.cls-5{font-size:144.12px;font-family:MyriadPro-Regular, Myriad Pro;}.cls-6{font-size:139.88px;}</style></defs><path class="cls-1" d="M427.33,588.32A193.62,193.62,0,0,0,385,584.8c-.25,0-6.6.57-6.84.63-25.92,6.74-48.32,17.85-69.6,33.59a227,227,0,0,0-31.71,28.52,3.61,3.61,0,0,0,.32,5.21l.05,0a3.63,3.63,0,0,0,4.6.15c2.68-2.1,5.56-4.2,8.63-6.27a9.11,9.11,0,0,1,2.64-1.74,126.51,126.51,0,0,1,29.44-14.1,133.66,133.66,0,0,1,45.59-6.08,154.37,154.37,0,0,1,70,18.9h0a5.53,5.53,0,0,1,.59-.47l.11-.07a4.69,4.69,0,0,1,.58-.35l.11-.06a6.64,6.64,0,0,1,1.63-.54A69,69,0,0,1,462,605.52a3.65,3.65,0,0,0-1.06-6.07C450.19,595,439,590.68,427.33,588.32Z"/><path class="cls-1" d="M473.83,632l-.32-.21.33-.51C473.83,631.55,473.83,631.79,473.83,632Z"/><path class="cls-1" d="M480.14,230,259.51,372.12v298h11.61l.37-.73a.75.75,0,0,1,.13-.18.48.48,0,0,1,0-.12c0-.23,0-.46,0-.69-2.39-5-.91-12,4.44-14.62a9.61,9.61,0,0,1,9.45-6.36,11.7,11.7,0,0,1,2.18.2c.12-.07.22-.18.34-.25l.27-.2h0l.24-.1a9.13,9.13,0,0,1,2-1.36h-6.56V385.44L480.14,259,675,384.59a9.82,9.82,0,0,1,4.74-4c.28-5.07,3.68-9.92,10.21-9.92a11.09,11.09,0,0,1,1.55.11c.72-1.08,1.39-2.17,2-3.3Z"/><path class="cls-1" d="M633.52,546c1.6,1.2-14.32,34-47.32,63.63a207,207,0,0,1-67.82,40.62c-16.56,2.85-30.72,2.67-46.73,1-13.74-1.46-27.19-5.64-39.87-9.64a69,69,0,0,0,21.42-45.26,153.56,153.56,0,0,0,73.58,13.24,132.29,132.29,0,0,0,44.49-10.31C612.94,581.18,631.82,544.74,633.52,546Z"/><path class="cls-1" d="M583.07,327.79c-2-1.23-4.11-2.43-6.2-3.57C579,325.35,581,326.56,583.07,327.79Z"/><g class="cls-2"><path class="cls-1" d="M506.08,651.93c2-.15,4-.34,5.95-.55C510,651.59,508.06,651.79,506.08,651.93Z"/></g><path class="cls-1" d="M666,454.19c.19,1.41.37,2.81.52,4.21.07.67.13,1.32.21,2v.05c0,.37,0,.73.09,1.09.06.55.11,1.08.14,1.62,0,.18,0,.35,0,.52.09,1,.17,2.09.23,3.12,0,.49.06,1,.08,1.44h0c.05.84.09,1.69.12,2.53,0,.13,0,.26,0,.39,0,1,.07,2,.08,3a.57.57,0,0,1,0,.13c0,.53,0,1.07,0,1.6,0,.94,0,1.89,0,2.82,0,.35,0,.71,0,1.06q0,1.68-.06,3.33c0,.13,0,.25,0,.37,0,1.34-.09,2.68-.17,4,0,0,0,0,0,.05,0,1.09-.13,2.17-.2,3.26,0,.35,0,.69-.09,1-.17,2.16-.39,4.33-.65,6.48-.08.69-.15,1.37-.25,2.06a.19.19,0,0,1,0,.08c-.13,1-.26,2-.41,2.93-.17,1.15-.36,2.31-.56,3.46-.1.62-.21,1.24-.32,1.86-.13.79-.29,1.59-.44,2.38s-.28,1.4-.43,2.09q-1,4.62-2.16,9.15c-.11.41-.21.83-.33,1.24-.56,2.06-1.16,4.09-1.8,6.12-.21.69-.42,1.36-.65,2s-.48,1.49-.74,2.23-.41,1.2-.62,1.79-.47,1.32-.72,2-.49,1.33-.74,2-.49,1.32-.76,2-.5,1.26-.76,1.89-.56,1.36-.84,2l-.84,1.93c-.27.64-.56,1.29-.86,1.93-.13.31-.27.6-.41.91-.42.91-.85,1.82-1.28,2.73,0,.06-.06.13-.09.18-.55,1.17-1.12,2.32-1.71,3.46s-1.21,2.34-1.83,3.5c-.43.8-.86,1.6-1.31,2.38-.22.4-.43.78-.66,1.17-.46.82-.94,1.65-1.42,2.47-.83,1.43-1.69,2.83-2.57,4.22-.62,1-1.23,2-1.87,2.92l-.59.88c-.57.87-1.17,1.74-1.76,2.61a1.77,1.77,0,0,1-.12.17c-.85,1.22-1.71,2.44-2.58,3.63s-1.77,2.39-2.67,3.56-1.83,2.35-2.76,3.5-1.88,2.3-2.85,3.42-1.94,2.25-2.93,3.35-2,2.2-3,3.28-1.92,2-2.89,3a7.93,7.93,0,0,1-.58.58,26.25,26.25,0,0,0-2.07,2c-.33.37-.72.71-1.09,1.07-.77.73-1.54,1.45-2.33,2.16-1.41,1.3-2.84,2.57-4.3,3.83-1,.81-1.9,1.62-2.88,2.41a9,9,0,0,1-1,.76,18,18,0,0,1-2.09,1.69,10.34,10.34,0,0,1-1.1.88c-.71.57-1.43,1.11-2.16,1.65-.43.33-.86.65-1.3,1-1,.72-2,1.43-2.94,2.11l-.61.44c-1.13.78-2.28,1.55-3.43,2.31s-2.53,1.64-3.8,2.44c-1.06.67-2.14,1.33-3.22,2-.56.34-1.12.66-1.69,1-1.41.8-2.82,1.6-4.24,2.37-.84.46-1.69.91-2.54,1.35s-1.7.88-2.56,1.3c-.53.27-1.06.54-1.6.79s-1.37.67-2.06,1l-1.58.74c-.91.41-1.81.82-2.71,1.21-1.16.51-2.32,1-3.49,1.48l-2.73,1.11c-.46.18-.92.36-1.38.52-1,.38-1.95.75-2.93,1.11a.1.1,0,0,0-.07,0c-1.2.44-2.41.85-3.63,1.26s-2.42.81-3.64,1.19-2.45.74-3.69,1.11h0q-4.62,1.34-9.35,2.42c-.9.22-1.79.42-2.7.6q-6.59,1.42-13.37,2.33c-.87.11-1.73.23-2.6.32l-1.25.16c-2,.21-4,.4-5.95.55a1.3,1.3,0,0,1-.22,0c-1,.08-2,.15-3,.21h-.17s90.25-31.33,69.25-116.5c-.23-.92-.47-1.83-.72-2.74-.15-.53-.3-1.06-.47-1.61-.09-.32-.19-.67-.3-1-.19-.57-.37-1.17-.57-1.74-.24-.72-.49-1.43-.76-2.15-.2-.57-.42-1.13-.66-1.69-.08-.24-.18-.48-.27-.7-.19-.47-.39-.92-.6-1.38l-.23-.56c-.3-.64-.59-1.28-.9-1.91-.42-.91-.88-1.8-1.37-2.68-.22-.44-.47-.88-.73-1.32l-.76-1.28q-.39-.66-.81-1.29c-.24-.38-.51-.78-.77-1.17-.38-.55-.78-1.11-1.17-1.66-.22-.29-.43-.58-.65-.86a55,55,0,0,0-8.71-9.05s0,0,0,0c-.57-.79-1.13-1.6-1.69-2.42q-1.28-1.86-2.51-3.73c-.84-1.25-1.65-2.52-2.45-3.79s-1.41-2.24-2.1-3.37q-2.58-4.2-5-8.52c-.63-1.12-1.26-2.26-1.87-3.41-.51-.94-1-1.88-1.51-2.84-.39-.73-.76-1.46-1.14-2.19-1.78-3.49-3.47-7-5.1-10.61-.41-.89-.8-1.79-1.19-2.7-.2-.43-.39-.88-.57-1.31-.36-.79-.7-1.6-1-2.41-.15-.33-.29-.67-.41-1-.4-.91-.78-1.85-1.14-2.77-.49-1.2-1-2.39-1.41-3.6a251.85,251.85,0,0,1-14.42-56.69c-.69-5.08-1.21-10.16-1.59-15.2a123.84,123.84,0,0,0-41.21-1.36c-2.35.32-4.67.69-7,1.13h0a40.26,40.26,0,0,0-11.42,6.62c-27.51,22.51-71,52.83-71,52.83,12.7-13.52,69.28-69.1,69.29-69.13,0-.49,0-1,0-1.49a61.09,61.09,0,0,1,2.35-14c.11-.41.23-.82.36-1.22s.25-.82.4-1.22c.25-.76.52-1.5.78-2.25.5-1.3,1-2.56,1.6-3.82.29-.63.58-1.25.89-1.87.43-.84.87-1.67,1.33-2.51s.8-1.41,1.22-2.09c.31-.52.64-1,1-1.52s.49-.75.74-1.13c.38-.55.76-1.08,1.15-1.61,1-1.37,2-2.67,3.13-3.95a61.9,61.9,0,0,1,10.25-9.48c.29-.22.57-.43.87-.63s.59-.42.89-.61c.66-.46,1.34-.91,2-1.32.18-.12.36-.24.54-.34.4-.25.79-.49,1.19-.71,1-.6,2.08-1.16,3.13-1.7l1.17-.57.63-.3,1.28-.58a59.12,59.12,0,0,1,6-2.24l1-.31c.33-.11.67-.21,1-.29s.63-.18.95-.26c.61-.16,1.22-.32,1.83-.46s.94-.22,1.41-.31c1.42-.29,2.86-.54,4.32-.73a61.4,61.4,0,0,1,40.92,8.82,98.85,98.85,0,0,1,25.25,5.5c1.42.5,2.8,1,4.19,1.61a42.89,42.89,0,0,1,7.15,2.91l1,.53c2.09,1.14,4.16,2.34,6.2,3.57l.54.33c.95.57,1.88,1.16,2.81,1.75s2.07,1.34,3.09,2h0c1.2.8,2.39,1.59,3.56,2.42l0,0,2.21,1.58c.61.45,1.22.89,1.82,1.35.83.61,1.65,1.23,2.47,1.88s1.73,1.33,2.58,2l1.43,1.16c3.27,2.68,6.46,5.49,9.53,8.41,1,.94,2,1.89,2.93,2.85.5.5,1,1,1.47,1.5s1.13,1.15,1.69,1.74q3.12,3.26,6.08,6.7c.71.83,1.41,1.65,2.1,2.5,0,0,0,0,0,0,.34.42.68.83,1,1.25.1.11.21.24.31.37l1.74,2.17.19.25c.85,1.09,1.68,2.2,2.52,3.32s1.7,2.33,2.53,3.52l0,0a6.88,6.88,0,0,1,2.35,3.42.46.46,0,0,0,.1.17c.84,1.26,1.67,2.54,2.48,3.82l.91,1.46c1,1.6,1.94,3.21,2.88,4.85q1,1.71,1.92,3.45c2.22,4.09,4.28,8.26,6.16,12.55.31.68.59,1.36.9,2.06.62,1.43,1.21,2.89,1.79,4.35.24.61.48,1.22.71,1.83q.9,2.36,1.74,4.74c.25.72.49,1.43.73,2.15.51,1.51,1,3,1.45,4.55.24.76.46,1.52.68,2.28s.49,1.69.72,2.55c.18.66.36,1.33.53,2s.41,1.54.59,2.31l.54,2.24q.28,1.25.57,2.52c.15.74.31,1.48.46,2.22s.31,1.57.46,2.37.33,1.78.49,2.68c.12.69.24,1.37.34,2.06s.21,1.35.33,2l.14,1C665.81,453.16,665.88,453.68,666,454.19Z"/><path class="cls-1" d="M664.43,444.83c-.15-.8-.3-1.57-.46-2.37s-.31-1.48-.46-2.22-.38-1.69-.57-2.52l-.54-2.24c-.18-.77-.38-1.55-.59-2.31s-.35-1.34-.53-2c-.23-.86-.48-1.72-.72-2.55s-.44-1.52-.68-2.28c-.46-1.52-.94-3-1.45-4.55-.24-.72-.48-1.43-.73-2.15q-.84-2.38-1.74-4.74c-.23-.61-.47-1.22-.71-1.83-.58-1.46-1.17-2.92-1.79-4.35-.31-.7-.59-1.38-.9-2.06-1.88-4.29-3.94-8.46-6.16-12.55q-.95-1.74-1.92-3.45c-.94-1.64-1.89-3.25-2.88-4.85l-.91-1.46c-.81-1.28-1.64-2.56-2.48-3.82a.46.46,0,0,1-.1-.17,7.44,7.44,0,0,0-.57-1.29,135.85,135.85,0,0,1-16.32,5.34c25,44.85,30,108.24,5.72,162.41-30.53,68-94.3,96.39-114.91,104.56l1.25-.16c.87-.09,1.73-.21,2.6-.32q6.78-.92,13.37-2.33c.91-.18,1.8-.38,2.7-.6q4.72-1.08,9.35-2.42h0c1.24-.37,2.47-.73,3.69-1.11s2.44-.78,3.64-1.19,2.43-.82,3.63-1.26a.1.1,0,0,1,.07,0c1-.36,1.95-.73,2.93-1.11.46-.16.92-.34,1.38-.52l2.73-1.11c1.17-.48,2.33-1,3.49-1.48.9-.39,1.8-.8,2.71-1.21l1.58-.74c.69-.32,1.38-.65,2.06-1s1.07-.52,1.6-.79c.86-.42,1.72-.86,2.56-1.3s1.7-.89,2.54-1.35c1.42-.77,2.83-1.57,4.24-2.37.57-.33,1.13-.65,1.69-1,1.08-.64,2.16-1.3,3.22-2,1.27-.8,2.54-1.6,3.8-2.44s2.3-1.53,3.43-2.31l.61-.44c1-.68,2-1.39,2.94-2.11.44-.31.87-.63,1.3-1,.73-.54,1.45-1.08,2.16-1.65a10.34,10.34,0,0,0,1.1-.88,18,18,0,0,0,2.09-1.69,9,9,0,0,0,1-.76c1-.79,1.93-1.6,2.88-2.41,1.46-1.26,2.89-2.53,4.3-3.83.79-.71,1.56-1.43,2.33-2.16.37-.36.76-.7,1.09-1.07a26.25,26.25,0,0,1,2.07-2,7.93,7.93,0,0,0,.58-.58c1-1,1.94-2,2.89-3s2-2.17,3-3.28,2-2.22,2.93-3.35,1.91-2.26,2.85-3.42,1.85-2.31,2.76-3.5,1.79-2.35,2.67-3.56,1.73-2.41,2.58-3.63a1.77,1.77,0,0,0,.12-.17c.59-.87,1.19-1.74,1.76-2.61l.59-.88c.64-1,1.25-1.94,1.87-2.92.88-1.39,1.74-2.79,2.57-4.22.48-.82,1-1.65,1.42-2.47.23-.39.44-.77.66-1.17.45-.78.88-1.58,1.31-2.38.62-1.16,1.24-2.32,1.83-3.5s1.16-2.29,1.71-3.46c0-.05.06-.12.09-.18.43-.91.86-1.82,1.28-2.73.14-.31.28-.6.41-.91.3-.64.59-1.29.86-1.93l.84-1.93c.28-.67.57-1.35.84-2s.5-1.25.76-1.89.52-1.3.76-2,.5-1.32.74-2,.49-1.32.72-2,.42-1.19.62-1.79.5-1.49.74-2.23.44-1.34.65-2c.64-2,1.24-4.06,1.8-6.12.12-.41.22-.83.33-1.24q1.2-4.53,2.16-9.15c.15-.69.28-1.39.43-2.09s.31-1.59.44-2.38c.11-.62.22-1.24.32-1.86.2-1.15.39-2.31.56-3.46.15-1,.28-1.95.41-2.93a.19.19,0,0,0,0-.08c.1-.69.17-1.37.25-2.06.26-2.15.48-4.32.65-6.48,0-.35,0-.69.09-1,.07-1.09.15-2.17.2-3.26,0,0,0,0,0-.05.08-1.32.14-2.66.17-4,0-.12,0-.24,0-.37q0-1.65.06-3.33c0-.35,0-.71,0-1.06,0-.93,0-1.88,0-2.82,0-.53,0-1.07,0-1.6a.57.57,0,0,0,0-.13c0-1,0-2-.08-3,0-.13,0-.26,0-.39,0-.84-.07-1.69-.12-2.53h0c0-.49-.06-1-.08-1.44-.06-1-.14-2.07-.23-3.12,0-.17,0-.34,0-.52,0-.54-.08-1.07-.14-1.62,0-.36-.06-.72-.09-1.09v-.05c-.08-.66-.14-1.31-.21-2-.1-.87-.27-2.36-.52-4.21-.43-3.26-.87-5.78-1-6.68C664.72,446.34,664.49,445.18,664.43,444.83Z"/><path class="cls-1" d="M583.09,340.65A140.18,140.18,0,0,1,612.77,371c1.46,2.05,2.86,4.18,4.22,6.33a132.77,132.77,0,0,0,15.52-4.83c-.6-.81-1.21-1.62-1.83-2.42l-.19-.25-1.74-2.17c-.1-.13-.21-.26-.31-.37-.33-.42-.67-.83-1-1.25,0,0,0,0,0,0-.69-.85-1.39-1.67-2.1-2.5q-3-3.43-6.08-6.7c-.56-.59-1.11-1.16-1.69-1.74s-1-1-1.47-1.5c-1-1-2-1.91-2.93-2.85-3.07-2.92-6.26-5.73-9.53-8.41l-1.43-1.16c-.85-.69-1.72-1.37-2.58-2s-1.64-1.27-2.47-1.88c-.6-.46-1.21-.9-1.82-1.35l-2.21-1.58,0,0c-1.17-.83-2.36-1.62-3.56-2.42h0c-1-.68-2.06-1.35-3.09-2s-1.86-1.18-2.81-1.75l-.54-.33c-2-1.23-4.11-2.43-6.2-3.57l-1-.53C567,318.94,558,315.31,558,315.31c-4.76-1.93-10.42-4-16.91-5.92a131.85,131.85,0,0,0-30.25-5,82.23,82.23,0,0,0-12.49.42c-1.46.19-2.9.44-4.32.73-.47.09-.94.2-1.41.31s-1.22.3-1.83.46c-.32.08-.63.16-.95.26s-.68.18-1,.29l-1,.31a59.12,59.12,0,0,0-6,2.24l-1.28.58-.63.3-1.17.57c-1.05.54-2.11,1.1-3.13,1.7-.4.22-.79.46-1.19.71-.18.1-.36.22-.54.34-.68.41-1.36.86-2,1.32-.3.19-.6.41-.89.61s-.58.41-.87.63a61.9,61.9,0,0,0-10.25,9.48c-1.1,1.28-2.14,2.58-3.13,3.95-.39.53-.77,1.06-1.15,1.61-.25.38-.5.75-.74,1.13s-.65,1-1,1.52c-.42.68-.83,1.39-1.22,2.09s-.9,1.67-1.33,2.51c-.31.62-.6,1.24-.89,1.87-.58,1.26-1.1,2.52-1.6,3.82-.26.75-.53,1.49-.78,2.25-.15.4-.27.81-.4,1.22s-.25.81-.36,1.22a61.09,61.09,0,0,0-2.35,14c0,.49-.05,1,0,1.49l0-.06c7.66-19.86,25.26-41.14,46.57-49.45C529.3,300.14,568.91,330,583.09,340.65Z"/><path class="cls-1" d="M566.43,520.19c-1,.2-2.43-6.4-9.39-14a55.24,55.24,0,0,0-5.58-5.3s0,0,0,0c-.57-.79-1.13-1.6-1.69-2.42q-1.28-1.86-2.51-3.73c-.84-1.25-1.65-2.52-2.45-3.79s-1.41-2.24-2.1-3.37q-2.58-4.2-5-8.52c-.63-1.12-1.26-2.26-1.87-3.41-.51-.94-1-1.88-1.51-2.84-.39-.73-.76-1.46-1.14-2.19-1.78-3.49-3.47-7-5.1-10.61-.41-.89-.8-1.79-1.19-2.7-.2-.43-.39-.88-.57-1.31-.36-.79-.7-1.6-1-2.41-.15-.33-.29-.67-.41-1-.4-.91-.78-1.85-1.14-2.77-.49-1.2-1-2.39-1.41-3.6a251.85,251.85,0,0,1-14.42-56.69c-.69-5.08-1.21-10.16-1.59-15.2a123.84,123.84,0,0,0-41.21-1.36c-2.35.32-4.67.69-7,1.13,0,0,7.56-26.42,31.11-36,3.74-1.52,21.54-8.31,39,.13,7.4,3.56,13.91,9.45,19.88,19.21,17,27.75,6.59,49.28,11.76,103.84C562.51,488.46,568.58,519.76,566.43,520.19Z"/><g class="cls-3"><path class="cls-1" d="M553.67,396.54,755.92,209.65s34.46,263-179.49,212.12C576.43,421.77,532.94,415.71,553.67,396.54Z"/></g><g class="cls-4"><path class="cls-1" d="M666.68,460.38v.05c0,.37,0,.73.09,1.09.06.55.11,1.08.14,1.62,0,.18,0,.35,0,.52.09,1,.17,2.09.23,3.12,0,.49.06,1,.08,1.44h0c-70.06-9.39-110.4-41.5-114.16-52.94C571.41,433.89,640,459.82,666.68,460.38Z"/></g><g class="cls-3"><path class="cls-1" d="M552,397.26,684.79,207s104.47,191-105,203.9C579.75,410.9,538.35,416.76,552,397.26Z"/></g><path class="cls-1" d="M838.1,293.9l-65.26,41.58,63-33.8a393.37,393.37,0,0,1-15.5,43.41L800.6,356l18.87-8.75C785.69,424.72,716,505.59,578,431.77c0,0-48.39-20.29-18.7-35.92L848.8,243.41A397.2,397.2,0,0,1,838.1,293.9Z"/><path class="cls-1" d="M431.78,641.59s37.29,14,71.05,10.58c0,0,35.39-12.35,56.92-42.95a222.87,222.87,0,0,1-26.63,22.6,85.16,85.16,0,0,1-58.28,15.5c-11.23-1.15-27.47-3.94-40.2-8.61Z"/><text class="cls-5" transform="translate(98.73 799.43)">Z<tspan class="cls-6" x="79.7" y="0">enith </tspan><tspan x="413.72" y="0">H</tspan><tspan class="cls-6" x="507.68" y="0">omes</tspan></text><path class="cls-1" d="M293.06,644.94c-2,1.43-4.6,3.73-6.28,5.25a30.79,30.79,0,0,0-3,3.16l-5.3,6.44-4.82,7-2.55,3.34H266l.39-18.11,17.51-11.85"/></svg>